<svg preserveAspectRatio="none" overflow="visible" style="display: block;" width="289.67" height="107.101" viewBox="0 0 289.67 107.101" fill="none" xmlns="http://www.w3.org/2000/svg">
<g id="Group 1321315599">
<line id="Line 356" y1="-1" x2="114.543" y2="-1" transform="matrix(-0.419058 0.907959 -0.834789 -0.55057 48 0)" stroke="#B6E600" stroke-opacity="0.23" stroke-width="2"/>
<line id="Line 357" y1="-1" x2="114.543" y2="-1" transform="matrix(-0.419058 0.907959 -0.834789 -0.55057 64 0)" stroke="#B6E600" stroke-opacity="0.23" stroke-width="2"/>
<line id="Line 358" y1="-1" x2="114.543" y2="-1" transform="matrix(-0.419058 0.907959 -0.834789 -0.55057 80 0)" stroke="#B6E600" stroke-opacity="0.23" stroke-width="2"/>
<line id="Line 359" y1="-1" x2="114.543" y2="-1" transform="matrix(-0.419058 0.907959 -0.834789 -0.55057 96 0)" stroke="#B6E600" stroke-opacity="0.23" stroke-width="2"/>
<line id="Line 360" y1="-1" x2="114.543" y2="-1" transform="matrix(-0.419058 0.907959 -0.834789 -0.55057 112 0)" stroke="#B6E600" stroke-opacity="0.23" stroke-width="2"/>
<line id="Line 361" y1="-1" x2="114.543" y2="-1" transform="matrix(-0.419058 0.907959 -0.834789 -0.55057 128 0)" stroke="#B6E600" stroke-opacity="0.23" stroke-width="2"/>
<line id="Line 362" y1="-1" x2="114.543" y2="-1" transform="matrix(-0.419058 0.907959 -0.834789 -0.55057 144 0)" stroke="#B6E600" stroke-opacity="0.23" stroke-width="2"/>
<line id="Line 367" y1="-1" x2="114.543" y2="-1" transform="matrix(-0.419058 0.907959 -0.834789 -0.55057 176 2)" stroke="#B6E600" stroke-opacity="0.23" stroke-width="2"/>
<line id="Line 368" y1="-1" x2="114.543" y2="-1" transform="matrix(-0.419058 0.907959 -0.834789 -0.55057 192 2)" stroke="#B6E600" stroke-opacity="0.23" stroke-width="2"/>
<line id="Line 369" y1="-1" x2="114.543" y2="-1" transform="matrix(-0.419058 0.907959 -0.834789 -0.55057 192 2)" stroke="#B6E600" stroke-opacity="0.23" stroke-width="2"/>
<line id="Line 370" y1="-1" x2="114.543" y2="-1" transform="matrix(-0.419058 0.907959 -0.834789 -0.55057 208 2)" stroke="#B6E600" stroke-opacity="0.23" stroke-width="2"/>
<line id="Line 371" y1="-1" x2="114.543" y2="-1" transform="matrix(-0.419058 0.907959 -0.834789 -0.55057 224 2)" stroke="#B6E600" stroke-opacity="0.23" stroke-width="2"/>
<line id="Line 372" y1="-1" x2="114.543" y2="-1" transform="matrix(-0.419058 0.907959 -0.834789 -0.55057 240 2)" stroke="#B6E600" stroke-opacity="0.23" stroke-width="2"/>
<line id="Line 373" y1="-1" x2="114.543" y2="-1" transform="matrix(-0.419058 0.907959 -0.834789 -0.55057 256 2)" stroke="#B6E600" stroke-opacity="0.23" stroke-width="2"/>
<line id="Line 374" y1="-1" x2="114.543" y2="-1" transform="matrix(-0.419058 0.907959 -0.834789 -0.55057 272 2)" stroke="#B6E600" stroke-opacity="0.23" stroke-width="2"/>
<line id="Line 375" y1="-1" x2="114.543" y2="-1" transform="matrix(-0.419058 0.907959 -0.834789 -0.55057 288 2)" stroke="#B6E600" stroke-opacity="0.23" stroke-width="2"/>
<line id="Line 363" y1="-1" x2="114.543" y2="-1" transform="matrix(-0.419058 0.907959 -0.834789 -0.55057 160 0)" stroke="#B6E600" stroke-opacity="0.23" stroke-width="2"/>
<line id="Line 364" y1="-1" x2="114.543" y2="-1" transform="matrix(-0.419058 0.907959 -0.834789 -0.55057 160 0)" stroke="#B6E600" stroke-opacity="0.23" stroke-width="2"/>
</g>
</svg>
